inDegrees=yes
name=motion_pendulo.mot
DataType=double
version=3
OpenSimVersion=4.4-2022-07-23-0e9fedc
endheader
time	q1	q2
12.63995504379272	186.3065885273019	-15.39534288719391
12.65094614028931	186.3065885272986	-15.63503265549687
12.6609411239624	186.3065885272967	-15.76918541988665
12.66895794868469	186.3065885272891	-15.4250431960611
12.67797207832336	186.3065885272897	-15.09208015616782
12.6859450340271	186.8574193693001	-15.64291099829536
12.69294381141663	187.5290983503534	-16.31458997944245
12.69694900512695	187.5290983502042	-15.92520945010593
12.70292782783508	188.2502975958951	-16.64640869607011
12.70892596244812	188.2502975957045	-16.83303419055302
12.71794509887695	188.2502975956411	-16.23300958812881
12.72294807434082	189.0325352661493	-17.01524725898247
12.72898411750793	189.032535259944	-14.37122047342121
12.74694609642029	189.0325352654333	-13.26025501204047
12.75794792175293	189.0325352653407	-12.076211839189
12.76796913146973	189.0325352648514	-10.60486830099446
12.7769558429718	189.0325352643124	-8.910342437150105
12.7859468460083	189.0325352295794	-4.073651128900109
12.7949481010437	189.0325350393632	4.830346916032865
12.80494213104248	189.0325352646745	6.381932614439101
12.82396912574768	189.0325352643927	8.046682812211584
12.83193492889404	189.0325352647908	9.546358813373342
12.84595799446106	189.032535264439	11.19353182441665
12.85496091842651	189.0325352644374	12.84131600869236
12.86993789672852	189.0325352645034	14.46350949094255
12.88095378875732	189.032535262103	16.73691063570461
12.88794302940369	189.0325352648589	18.20439270379035
12.89494895935059	189.0325352650721	19.56089157549436
12.90695190429688	189.0325352621941	21.81565280196833
12.91193604469299	189.0325352603293	24.40034186072409
12.91992712020874	189.0325352636999	26.29168625494805
12.92896795272827	189.0325352657165	27.07857844262942
12.95194697380066	189.0325352650417	28.45149872143544
12.95995402336121	189.032535265867	28.71777106277389
12.96494483947754	189.0325352658714	28.88564586448783
12.97096705436707	189.0325352658724	29.00981768021766
12.98094391822815	189.0325352658714	29.17855747733723
12.98696804046631	190.0557734145739	28.15531932647768
12.99495100975037	190.0557734139159	28.32287473792624
12.99996399879456	191.1333175886946	27.24533056063863
13.00396013259888	191.1333175879016	27.36608005244102
13.00793814659119	192.1631992458933	26.33619839224997
13.01296997070312	192.1631992451843	26.45015996950598
13.01695203781128	193.8080691771169	24.80529002845833
13.0239269733429	193.8080691743083	24.8913031103889
13.02793288230896	202.8893167750313	15.81005393215301
13.0319299697876	202.8893165949446	15.86738923644512
13.04293990135193	202.8893165949446	15.84163701199923
13.05094814300537	202.8893165949449	15.69922306227213
13.05994606018066	202.8893165949448	15.56624707867515
13.06795597076416	202.8893165949455	15.37186912462316
13.0789680480957	202.889316594947	15.1099922268964
13.08396100997925	202.8893166072771	10.5947787540735
13.09096503257751	202.8893165950008	9.845463311694591
13.09996104240417	202.8893165949476	9.563217242928308
13.10694599151611	204.3227214359819	8.12981239816739
13.11094880104065	204.3227214354341	7.81956897890338
13.11698794364929	205.7438494527306	6.398440958070429
13.12293791770935	205.7438494523233	5.874199678770145
13.12693881988525	212.0208042343304	-0.4027553932968456
13.13194179534912	212.0208042164399	-0.8283350972260404
13.13794088363647	212.0208042164654	-1.720908261883277
13.14795112609863	200.0757009331983	10.22419676626821
13.15594077110291	200.0757013480421	9.545500057870358
13.16094589233398	198.7262268515653	10.89497455671112
13.16593790054321	198.7262268525688	10.12903986558031
13.17195391654968	197.750811242473	11.10445547653292
13.1759569644928	197.7508112429404	10.53409899750478
13.18094491958618	196.2138922954543	12.07101794812105
13.18594694137573	196.2138922974707	11.48152757457853
13.19496083259583	196.2138922975166	10.7713618897873
13.19894695281982	194.6601409586958	12.32511323158278
13.20296692848206	194.6601409610284	11.62885397599352
13.2079439163208	187.1429845746256	19.14601068302993
13.21494388580322	186.2847392527572	20.00425568475934
13.21994709968567	186.2847392529348	19.33023072261081
13.22492098808289	185.4407412134747	20.17422876252152
13.22893214225769	185.4407412136099	19.40116660128463
13.23495292663574	183.4645973025376	21.377310517687
13.23892998695374	183.4645973031874	20.56102021128083
13.24994397163391	181.6345890691079	22.39102844937483
13.25694108009338	181.6345890695748	21.10296587153412
13.26296091079712	181.0053733079033	21.73218163344339
13.2669460773468	181.0053733079429	20.74976359638508
13.27094984054565	180.3725062566092	21.38263064789952
13.27594494819641	180.3725062566558	20.23313689139256
13.27993488311768	179.389902459249	21.21574068936944
13.28495478630066	179.3899024593119	20.14750683457572
13.2889449596405	178.7250451038637	20.81236419022182
13.29294013977051	178.7250451039208	19.57517241689538
13.29794406890869	178.2993549231637	20.00086259775829
13.30494785308838	178.2993549232331	18.67415168883675
13.30893993377686	177.9055924413518	19.06791417082714
13.31295299530029	177.9055924414535	17.66843811473606
13.32292699813843	177.9055924414433	16.319874647664
13.32894206047058	177.5586711293917	16.66679595980971
13.33494305610657	177.5586711298904	14.47002371782779
13.34095692634583	177.263475828886	14.76521901913017
13.35094594955444	177.0306281664608	14.99806668155026
13.36095309257507	177.030628166688	13.48985742910207
13.36595678329468	176.7363847063559	13.78410088952571
13.36993885040283	176.7363847065729	12.3283302853028
13.37794518470764	176.7363847065856	10.84440859462752
13.38593578338623	176.3880709750726	11.19272232620531
13.39196109771729	176.2878248958636	11.29296840540425
13.39696311950684	176.2878248959555	10.09522990339235
13.40494990348816	176.2878248959579	8.886731843680909
13.41195797920227	176.2878248959414	7.753409983961252
13.42194104194641	176.2878248959366	6.644355403447574
13.42593789100647	176.4835823208249	6.448597978577932
13.433926820755	176.4835823208753	5.335141873623868
13.43997502326965	177.0352122853551	4.783511909125364
13.44394302368164	177.0352122856006	2.304710369512605
13.45194387435913	178.1588286684665	1.181093986525626
13.45594596862793	178.1588286684626	0.2959781317971527
13.45995688438416	178.8767777833001	-0.4219709831546686
13.4659378528595	178.8767777833	-1.191400667088886
13.47093892097473	179.6004228018691	-1.915045685789181
13.47793793678284	179.6004228018681	-2.537902249010826
13.48295402526855	180.4461342814914	-3.383613728875848
13.4909360408783	182.6906809388362	-5.628160390619466
13.49994087219238	182.6906809378581	-6.201906416486054
13.5039370059967	183.8009409486976	-7.312166427945332
13.50993585586548	183.8009409485129	-7.789778145393633
13.52194690704346	183.8009409485086	-8.166669992803987
13.5379331111908	183.8009409485081	-8.529134669526556
13.56496477127075	183.8009409485045	-8.655999156096893
13.57293701171875	186.6885650999478	-11.54362332691506
13.57696318626404	186.6885650922877	-11.57979325292434
13.58295083045959	188.9402860103668	-13.83151418106381
13.58794093132019	188.940286004869	-13.77808372234088
13.59394407272339	189.8315644870345	-14.6693622051794
13.60196709632874	189.8315644866344	-14.50221021444183
13.60894203186035	190.5122069732977	-15.18285270142304
13.61392593383789	191.644732468532	-16.31537819780286
13.61994194984436	191.6447324672135	-15.35363086545695
13.62494897842407	193.1004992591458	-16.8093976611495
13.64195394515991	193.1004992570571	-16.35970311688968
13.65594696998596	193.1004992567924	-15.42920886192817
13.66394400596619	193.1004992568139	-14.52154764847179
13.68697810173035	193.1004992312988	-10.40718877924936
13.69494104385376	193.1004992561428	-9.039210068316233
13.70396018028259	193.1004992556844	-7.478937555492959
13.71294689178467	193.1004992290315	-3.247317405797179
13.71996188163757	193.1004991253579	3.837750053300098
13.73895883560181	193.1004992459621	6.946612732826997
13.74893116950989	193.1004992561022	8.333778472938386
13.76194787025452	193.1004992560716	9.735174833262686
13.77094697952271	193.1004992479493	12.64676907698179
13.80298709869385	193.1004992565553	13.7776362093872
13.82498097419739	193.1004992564683	14.96664364846092
13.84994006156921	193.1004991882545	20.67194202159796
13.85793399810791	193.1004992567119	21.67932710539253
13.86495113372803	193.1004992567119	21.67932710539253
13.87195491790771	193.1004992378442	25.4086382134968
13.87994194030762	193.1004992339211	29.37299745503558
13.8839418888092	194.4331745986277	28.04032206581553
13.89394497871399	194.4331745968619	28.76168687638899
13.90093898773193	194.4331745966144	29.7685101120186
13.90595602989197	196.1106438199487	28.09104087015967
13.91095089912415	196.1106438148953	29.63858920002927
13.91594505310059	205.7874472606829	19.96178207205242
13.92297601699829	205.7874470204478	20.85471849387086
13.92895007133484	205.7874470205245	21.44202708556208
13.93597292900085	207.1213042630582	20.10816983310812
13.93895196914673	207.1213042625699	20.19715031218816
13.94294190406799	208.3907321879612	18.92772237825832
13.94794297218323	208.3907321876254	18.96021078544188
13.95292115211487	214.4783194834441	12.87262254822638
13.95792889595032	214.4783194510896	12.88201002944096
13.96692395210266	214.4783194510898	12.82093846035856
13.97193813323975	215.6244159713862	11.67484193384016
13.97794795036316	215.6244159711832	11.54083143565251
13.98194003105164	210.3100681791526	16.85517983907678
13.99295377731323	210.3100683013933	16.69058371214052
14.00294089317322	204.9728537199376	22.02779890760607
14.00892996788025	201.3385984772845	25.66205373010844
14.01495599746704	201.3385985014525	25.48834016146612
14.01895403862	199.7648014537802	27.06213722470498
14.02496409416199	199.7648014556522	26.69126148726302
14.03094816207886	195.8836770361689	30.57238613654967
14.03594493865967	195.8836770605102	30.21634183292472
14.04193472862244	195.8836770605443	29.64065099922967
14.04893398284912	194.4888583334412	31.03546973666711
14.05293488502502	194.4888583442998	27.50200083227243
14.05692005157471	193.0704388625581	28.92042033248423
14.06092190742493	193.0704388746744	25.22578124860365
14.0709388256073	190.2554424325057	28.04077775427993
14.07997798919678	190.255442462138	23.67092917160591
14.08396482467651	189.1204192348665	24.80595241092823
14.09294199943542	186.5182379598254	27.40813371295735
14.0969500541687	186.5182379667795	26.90562679423029
14.10293984413147	185.5183144519403	27.90555031070375
14.10693788528442	185.5183144528644	26.51969233065761
14.11194014549255	184.5726179775724	27.46538880750959
14.11792898178101	184.5726179778993	26.8689646405481
14.12196207046509	183.6589876042529	27.78259501534775
14.12694501876831	183.6589876045196	27.13120165244053
14.13094615936279	182.0358995015048	28.75428976167982
14.13594698905945	182.0358995023606	28.06069486585001
14.14193511009216	181.2402995828783	28.85629478607346
14.14693999290466	181.2402995829867	28.11526094650226
14.15093398094177	180.5432145614342	28.8123459685536
14.15892505645752	180.5432145615058	28.00884464932566
14.162926197052	179.540298635361	29.01176057684497
14.16992998123169	178.9138933842504	29.63816582695163
14.17793893814087	178.9138933847995	27.36033675597636
14.18293786048889	178.3322495990468	27.9419805429925
14.18998098373413	178.3322495991155	26.95202143851966
14.1959400177002	177.7908177883804	27.49345324953664
14.20193791389465	177.2905369746952	27.99373406317994
14.20694613456726	177.2905369748282	26.83072501933433
14.21193695068359	176.8084579498969	27.3128040445424
14.21893405914307	176.8084579500794	26.04580299057427
14.2249391078949	176.8084579501239	24.67443980035422
14.23093700408936	176.4619147449593	25.02098300579975
14.23894715309143	176.4619147452352	23.55212378455007
14.24298810958862	176.1481080092821	23.86593052082302
14.24893808364868	175.6481929337517	24.36584559647395
14.25294899940491	175.6481929341216	22.82481498393608
14.25794315338135	175.2455029597603	23.2275049587012
14.26192593574524	175.2455029651381	19.37086010612751
